<svg width="101" height="36" viewBox="0 0 101 36" fill="none" xmlns="http://www.w3.org/2000/svg">
<path d="M96.32 0.449951L92.81 15.93L89.5701 0.449951H84.8L90.11 22.4999V35.6399H95.15L95.2401 22.3199L101 0.449951H96.32Z" fill="white"/>
<path d="M35.0304 35.6399H46.6404V31.3199H39.7104V20.1599H45.1104V15.84H39.7104V4.67995H46.6404V0.449951H35.0304V35.6399Z" fill="white"/>
<path d="M4.52026 0.449951L0.0202637 35.6399H4.70026L5.42026 28.9799H10.1903L10.9103 35.6399H15.5903L11.0903 0.449951H4.52026ZM5.87026 25.1099L7.76026 6.65995L9.74026 25.1099H5.87026Z" fill="white"/>
<path d="M60.3202 23.8499L54.9202 0.449951H49.9702V35.6399H54.2902V12.15L59.6902 35.6399H64.6402V0.449951H60.3202V23.8499Z" fill="white"/>
<path d="M75.5302 0C69.4102 0 67.9702 3.96 67.9702 7.92V28.08C67.9702 32.13 69.4102 36 75.5302 36C81.6502 36 83.0902 32.04 83.0902 28.08V22.32H78.4102V28.35C78.4102 29.7 78.4102 31.95 75.5302 31.95C72.6502 31.95 72.6502 29.61 72.6502 28.35V7.65C72.6502 6.3 72.6502 4.05 75.5302 4.05C78.4102 4.05 78.4102 6.39 78.4102 7.65V13.68H83.0902V7.92C83.1802 3.96 81.6502 0 75.5302 0Z" fill="white"/>
<path d="M24.8603 22.32H27.1103V28.53C27.1103 30.24 27.0203 32.13 24.8603 32.13C22.5203 32.13 22.5203 29.97 22.5203 28.17V7.83C22.5203 6.03 22.5203 3.87 24.8603 3.87C27.2003 3.87 27.0203 6.03 27.0203 7.83V11.52H31.3403V7.83C31.3403 4.59 31.1603 0 24.8603 0C18.5603 0 17.9303 4.59 17.9303 7.83V28.08C17.9303 31.32 18.5603 35.91 24.8603 35.91C26.6603 35.91 27.8303 35.28 28.6403 34.2L29.0003 35.46H31.7903V18H24.9503V22.32H24.8603Z" fill="white"/>
</svg>
