<svg width="80" height="36" viewBox="0 0 80 36" fill="none" xmlns="http://www.w3.org/2000/svg">
<path d="M4.5 0L0 35.19H4.68L5.4 28.53H10.17L10.89 35.19H15.57L10.98 0H4.5ZM5.85 24.66L7.74 6.21L9.72 24.66H5.85Z" fill="white"/>
<path d="M22.77 0H18.18V35.19H30.51V30.87H22.77V0Z" fill="white"/>
<path d="M59.4898 0H50.5798V35.19H55.2598V19.71H57.1498C59.3998 19.71 59.6698 21.24 59.6698 24.66V35.1H64.3498V22.14C64.3498 18.54 61.9198 17.64 59.4898 17.64V17.55C61.9198 17.55 64.3498 16.74 64.3498 13.05V4.5C64.3498 0.81 61.9198 0 59.4898 0ZM59.8498 13.86C59.7598 15.21 59.2198 15.39 58.0498 15.39H55.2598V4.23H58.0498C59.2198 4.23 59.6698 4.41 59.8498 5.76C59.8498 6.12 59.8498 13.59 59.8498 13.86Z" fill="white"/>
<path d="M67.68 35.19H79.29V30.87H72.36V19.8H77.76V15.48H72.36V4.32H79.29V0H67.68V35.19Z" fill="white"/>
<path d="M42.6599 27.9C42.6599 29.25 42.6599 31.5 39.7799 31.5C36.8999 31.5 36.8999 29.16 36.8999 27.9V0H32.2199V27.63C32.2199 31.68 33.6599 35.55 39.7799 35.55C45.8999 35.55 47.3399 31.59 47.3399 27.63V0H42.6599V27.9Z" fill="white"/>
</svg>
