<svg width="120" height="60" viewBox="0 0 120 60" fill="none" xmlns="http://www.w3.org/2000/svg">
<path d="M92.9 9.4L99 48.9H94.1L93.1 41.6H87L86 48.9H81.1L86.7 9.4H92.9ZM92.4 37L89.7 15.3L87.5 37H92.4ZM120 29.9C120 38.1 116.9 45.7 111.3 51.3C105.7 56.9 98.1 60 90 60C82 60 74.5 56.9 68.8 51.3C63.8 46.3 60.7 39.6 60.2 32.4H59.8C59.2 39.6 56.2 46.3 51.2 51.3C45.6 56.9 38 60 29.9 60C21.9 60 14.4 56.9 8.7 51.3C3.1 45.6 0 38.1 0 30C0 21.9 3.1 14.4 8.7 8.7C14.3 3.1 21.9 0 29.9 0C38 0 45.6 3.1 51.2 8.7C56.2 13.7 59.2 20.4 59.8 27.5H60.2C60.8 20.4 63.8 13.7 68.8 8.7C74.4 3.1 82 0 90.1 0C98.2 0 105.7 3.1 111.4 8.7C116.9 14.3 120 21.8 120 29.9ZM56.7 30.1C56.7 14.9 45 2.9 29.9 2.9C22.7 2.9 16 5.7 10.9 10.8C5.9 15.9 3.1 22.7 3.1 30C3.1 37.3 5.9 44.1 10.9 49.1C15.9 54.2 22.6 57 29.8 57C37 57 43.8 54.2 48.8 49.1C53.9 44.1 56.7 37.3 56.7 30.1ZM116.8 30.1C116.8 14.9 105 2.9 90 2.9C82.8 2.9 76.1 5.7 71 10.8C66 15.9 63.2 22.7 63.2 30C63.2 37.3 66 44.1 71 49.1C76 54.2 82.7 57 89.9 57C97.1 57 103.9 54.2 108.9 49.1C114 44.1 116.8 37.3 116.8 30.1ZM32.8 9.4L38.9 48.9H34L33 41.6H26.9L26 48.9H21L26.6 9.4H32.8ZM32.3 37L29.6 15.3L27.4 37H32.3Z" fill="white"/>
</svg>
