<svg width="121" height="60" viewBox="0 0 121 60" fill="none" xmlns="http://www.w3.org/2000/svg">
<path d="M92.9999 9.4L99.0999 48.9H94.1999L93.1999 41.6H87.0999L86.0999 48.9H81.1999L86.7999 9.4H92.9999ZM92.4999 37L89.7999 15.3L87.5999 37H92.4999ZM120.1 29.9C120.1 38.1 117 45.7 111.4 51.3C105.8 56.9 98.1999 60 90.0999 60C82.0999 60 74.5999 56.9 68.8999 51.3C63.8999 46.3 60.7999 39.6 60.2999 32.4H59.8999C59.2999 39.6 56.2999 46.3 51.2999 51.3C45.6999 56.9 38.0999 60 29.9999 60C21.9999 60 14.4999 56.9 8.79985 51.3C3.19985 45.6 0.0998535 38.1 0.0998535 30C0.0998535 21.9 3.19985 14.4 8.79985 8.7C14.3999 3.1 21.9999 0 29.9999 0C38.0999 0 45.6999 3.1 51.2999 8.7C56.2999 13.7 59.2999 20.4 59.8999 27.5H60.2999C60.8999 20.4 63.8999 13.7 68.8999 8.7C74.4999 3.1 82.0999 0 90.1999 0C98.2999 0 105.8 3.1 111.5 8.7C117 14.3 120.1 21.8 120.1 29.9ZM56.7999 30.1C56.7999 14.9 45.0999 2.9 29.9999 2.9C22.7999 2.9 16.0999 5.7 10.9999 10.8C5.99985 15.9 3.19985 22.7 3.19985 30C3.19985 37.3 5.99985 44.1 10.9999 49.1C15.9999 54.2 22.6999 57 29.8999 57C37.0999 57 43.8999 54.2 48.8999 49.1C53.9999 44.1 56.7999 37.3 56.7999 30.1ZM116.9 30.1C116.9 14.9 105.1 2.9 90.0999 2.9C82.8999 2.9 76.1999 5.7 71.0999 10.8C66.0999 15.9 63.2999 22.7 63.2999 30C63.2999 37.3 66.0999 44.1 71.0999 49.1C76.0999 54.2 82.7999 57 89.9999 57C97.1999 57 104 54.2 109 49.1C114.1 44.1 116.9 37.3 116.9 30.1ZM32.8999 9.4L38.9999 48.9H34.0999L33.0999 41.6H26.9999L26.0999 48.9H21.0999L26.6999 9.4H32.8999ZM32.3999 37L29.6999 15.3L27.4999 37H32.3999Z" fill="url(#paint0_linear)"/>
<defs>
<linearGradient id="paint0_linear" x1="60.0999" y1="0" x2="60.0999" y2="60" gradientUnits="userSpaceOnUse">
<stop stop-color="#FFDCCB"/>
<stop offset="0.442708" stop-color="#C37056"/>
<stop offset="0.671875" stop-color="#885A47"/>
<stop offset="1" stop-color="#E4A181"/>
</linearGradient>
</defs>
</svg>
